<?xml version="1.0" encoding="UTF-8" standalone="no"?>
<!-- Generator: Adobe Illustrator 18.0.0, SVG Export Plug-In . SVG Version: 6.00 Build 0)  -->

<svg
   xmlns:dc="http://purl.org/dc/elements/1.1/"
   xmlns:cc="http://creativecommons.org/ns#"
   xmlns:rdf="http://www.w3.org/1999/02/22-rdf-syntax-ns#"
   xmlns:svg="http://www.w3.org/2000/svg"
   xmlns="http://www.w3.org/2000/svg"
   xmlns:sodipodi="http://sodipodi.sourceforge.net/DTD/sodipodi-0.dtd"
   xmlns:inkscape="http://www.inkscape.org/namespaces/inkscape"
   version="1.1"
   id="Layer_1"
   x="0px"
   y="0px"
   viewBox="0 0 25 50"
   enable-background="new 0 0 25 50"
   xml:space="preserve"
   sodipodi:docname="big_arrowl.svg"
   inkscape:version="0.92.1 unknown"><metadata
     id="metadata4674"><rdf:RDF><cc:Work
         rdf:about=""><dc:format>image/svg+xml</dc:format><dc:type
           rdf:resource="http://purl.org/dc/dcmitype/StillImage" /><dc:title></dc:title></cc:Work></rdf:RDF></metadata><defs
     id="defs4672" /><sodipodi:namedview
     pagecolor="#ffffff"
     bordercolor="#666666"
     borderopacity="1"
     objecttolerance="10"
     gridtolerance="10"
     guidetolerance="10"
     inkscape:pageopacity="0"
     inkscape:pageshadow="2"
     inkscape:window-width="1855"
     inkscape:window-height="1056"
     id="namedview4670"
     showgrid="false"
     inkscape:zoom="26.700352"
     inkscape:cx="11.971612"
     inkscape:cy="32.88821"
     inkscape:window-x="65"
     inkscape:window-y="24"
     inkscape:window-maximized="1"
     inkscape:current-layer="Layer_1" /><polygon
     id="polygon4665"
     points="24.3,0 25,0.7 1.4,25 25,49.3 24.3,50 0,25 "
     style="fill:#ffffff;fill-opacity:1" /><path
     style="opacity:0;fill:#808080;fill-opacity:1;stroke-width:0.07490538"
     d="M 12.200642,37.49577 C 5.5564499,30.659404 0.11854113,25.03767 0.11640017,25.003027 0.11425921,24.968383 5.5527337,19.340005 12.201899,12.495519 L 24.29129,0.0509994 24.622637,0.37483215 24.953985,0.69866489 22.853595,2.8569359 C 10.503992,15.546863 1.4085156,24.955352 1.4249703,25.023007 c 0.011099,0.04563 5.0092496,5.219723 11.1070027,11.497976 6.097752,6.278253 11.380384,11.72077 11.73918,12.094481 l 0.652357,0.679476 -0.32126,0.315292 -0.321259,0.315293 z"
     id="path5219"
     inkscape:connector-curvature="0" /><path
     style="opacity:0;fill:#808080;fill-opacity:1;stroke-width:0.07490538"
     d="M 12.200642,37.49577 C 5.5564499,30.659404 0.11854113,25.03767 0.11640017,25.003027 0.11425921,24.968383 5.5527337,19.340005 12.201899,12.495519 L 24.29129,0.0509994 24.622637,0.37483215 24.953985,0.69866489 22.853595,2.8569359 C 10.503992,15.546863 1.4085156,24.955352 1.4249703,25.023007 c 0.011099,0.04563 5.0092496,5.219723 11.1070027,11.497976 6.097752,6.278253 11.380384,11.72077 11.73918,12.094481 l 0.652357,0.679476 -0.32126,0.315292 -0.321259,0.315293 z"
     id="path5221"
     inkscape:connector-curvature="0" /><path
     style="opacity:0;fill:#808080;fill-opacity:1;stroke-width:0.07490538"
     d="M 12.200642,37.49577 C 5.5564499,30.659404 0.11854113,25.03767 0.11640017,25.003027 0.11425921,24.968383 5.5527337,19.340005 12.201899,12.495519 L 24.29129,0.0509994 24.622637,0.37483215 24.953985,0.69866489 22.853595,2.8569359 C 10.503992,15.546863 1.4085156,24.955352 1.4249703,25.023007 c 0.011099,0.04563 5.0092496,5.219723 11.1070027,11.497976 6.097752,6.278253 11.380384,11.72077 11.73918,12.094481 l 0.652357,0.679476 -0.32126,0.315292 -0.321259,0.315293 z"
     id="path5223"
     inkscape:connector-curvature="0" /><path
     style="opacity:0;fill:#808080;fill-opacity:1;stroke-width:0.07490538"
     d="M 24.291016 0.05078125 L 12.201172 12.496094 C 5.5520065 19.34058 0.11504654 24.969262 0.1171875 25.003906 C 0.11932846 25.038549 5.5569797 30.659728 12.201172 37.496094 L 24.28125 49.925781 L 24.601562 49.609375 L 24.923828 49.294922 L 24.271484 48.615234 C 23.912688 48.241523 18.629002 42.799737 12.53125 36.521484 C 6.4334969 30.243231 1.4368803 25.069067 1.4257812 25.023438 C 1.4093265 24.955783 10.503913 15.547349 22.853516 2.8574219 L 24.953125 0.69921875 L 24.623047 0.375 L 24.291016 0.05078125 z "
     id="path5225" /><path
     style="opacity:0;fill:#808080;fill-opacity:1;stroke-width:0.07490538"
     d="M 12.200642,37.49577 C 5.5564499,30.659404 0.11854113,25.03767 0.11640017,25.003027 0.11425921,24.968383 5.5527337,19.340005 12.201899,12.495519 L 24.29129,0.0509994 24.622637,0.37483215 24.953985,0.69866489 22.853595,2.8569359 C 10.503992,15.546863 1.4085156,24.955352 1.4249703,25.023007 c 0.011099,0.04563 5.0092496,5.219723 11.1070027,11.497976 6.097752,6.278253 11.380384,11.72077 11.73918,12.094481 l 0.652357,0.679476 -0.32126,0.315292 -0.321259,0.315293 z"
     id="path5229"
     inkscape:connector-curvature="0" /><path
     style="opacity:0;fill:#808080;fill-opacity:1;stroke-width:0.07490538"
     d="M 12.200642,37.49577 C 5.5564499,30.659404 0.11854113,25.03767 0.11640017,25.003027 0.11425921,24.968383 5.5527337,19.340005 12.201899,12.495519 L 24.29129,0.0509994 24.622637,0.37483215 24.953985,0.69866489 22.853595,2.8569359 C 10.503992,15.546863 1.4085156,24.955352 1.4249703,25.023007 c 0.011099,0.04563 5.0092496,5.219723 11.1070027,11.497976 6.097752,6.278253 11.380384,11.72077 11.73918,12.094481 l 0.652357,0.679476 -0.32126,0.315292 -0.321259,0.315293 z"
     id="path5231"
     inkscape:connector-curvature="0" /><path
     style="opacity:0;fill:#808080;fill-opacity:1;stroke-width:0.07490538"
     d="M 12.200642,37.49577 C 5.5564499,30.659404 0.11854113,25.03767 0.11640017,25.003027 0.11425921,24.968383 5.5527337,19.340005 12.201899,12.495519 L 24.29129,0.0509994 24.622637,0.37483215 24.953985,0.69866489 22.853595,2.8569359 C 10.503992,15.546863 1.4085156,24.955352 1.4249703,25.023007 c 0.011099,0.04563 5.0092496,5.219723 11.1070027,11.497976 6.097752,6.278253 11.380384,11.72077 11.73918,12.094481 l 0.652357,0.679476 -0.32126,0.315292 -0.321259,0.315293 z"
     id="path5233"
     inkscape:connector-curvature="0" /><path
     style="opacity:0;fill:#808080;fill-opacity:1;stroke-width:0.07490538"
     d="M 12.200642,37.49577 C 5.5564499,30.659404 0.11854113,25.03767 0.11640017,25.003027 0.11425921,24.968383 5.5527337,19.340005 12.201899,12.495519 L 24.29129,0.0509994 24.622637,0.37483215 24.953985,0.69866489 22.853595,2.8569359 C 10.503992,15.546863 1.4085156,24.955352 1.4249703,25.023007 c 0.011099,0.04563 5.0092496,5.219723 11.1070027,11.497976 6.097752,6.278253 11.380384,11.72077 11.73918,12.094481 l 0.652357,0.679476 -0.32126,0.315292 -0.321259,0.315293 z"
     id="path5235"
     inkscape:connector-curvature="0" /><path
     style="opacity:0;fill:#808080;fill-opacity:1;stroke-width:0.07490538"
     d="M 12.200642,37.49577 C 5.5564499,30.659404 0.11854113,25.03767 0.11640017,25.003027 0.11425921,24.968383 5.5527337,19.340005 12.201899,12.495519 L 24.29129,0.0509994 24.622637,0.37483215 24.953985,0.69866489 22.853595,2.8569359 C 10.503992,15.546863 1.4085156,24.955352 1.4249703,25.023007 c 0.011099,0.04563 5.0092496,5.219723 11.1070027,11.497976 6.097752,6.278253 11.380384,11.72077 11.73918,12.094481 l 0.652357,0.679476 -0.32126,0.315292 -0.321259,0.315293 z"
     id="path5237"
     inkscape:connector-curvature="0" /><path
     style="opacity:0;fill:#808080;fill-opacity:1;stroke-width:0.07490538"
     d="M 12.200642,37.49577 C 5.5564499,30.659404 0.11854113,25.03767 0.11640017,25.003027 0.11425921,24.968383 5.5527337,19.340005 12.201899,12.495519 L 24.29129,0.0509994 24.622637,0.37483215 24.953985,0.69866489 22.853595,2.8569359 C 10.503992,15.546863 1.4085156,24.955352 1.4249703,25.023007 c 0.011099,0.04563 5.0092496,5.219723 11.1070027,11.497976 6.097752,6.278253 11.380384,11.72077 11.73918,12.094481 l 0.652357,0.679476 -0.32126,0.315292 -0.321259,0.315293 z"
     id="path5239"
     inkscape:connector-curvature="0" /><path
     style="opacity:0;fill:#808080;fill-opacity:1;stroke-width:0.02648305"
     d="M 12.16177,37.494454 C 5.4943307,30.633792 0.03915322,25.011341 0.03915322,25.000118 c 0,-0.01122 2.79078448,-2.8916 6.20174338,-6.400837 l 6.2017434,-6.380431 0.673541,-0.0071 0.67354,-0.0071 -0.07576,0.09061 c -0.04167,0.04984 -2.828673,2.923463 -6.1933449,6.385835 -3.3646716,3.462372 -6.1204528,6.302825 -6.1239583,6.312117 -0.00351,0.0093 5.3015401,5.481011 11.7889902,12.159374 l 11.795364,12.142479 -0.334689,0.337659 c -0.184078,0.185712 -0.340819,0.337195 -0.348312,0.336631 -0.0075,-5.64e-4 -5.468801,-5.614295 -12.13624,-12.474957 z"
     id="path5241"
     inkscape:connector-curvature="0" /><path
     style="opacity:0;fill:#808080;fill-opacity:1;stroke-width:0.02648305"
     d="M 12.16177,37.494454 C 5.4943307,30.633792 0.03915322,25.011341 0.03915322,25.000118 c 0,-0.01122 2.79078448,-2.8916 6.20174338,-6.400837 l 6.2017434,-6.380431 0.673541,-0.0071 0.67354,-0.0071 -0.07576,0.09061 c -0.04167,0.04984 -2.828673,2.923463 -6.1933449,6.385835 -3.3646716,3.462372 -6.1204528,6.302825 -6.1239583,6.312117 -0.00351,0.0093 5.3015401,5.481011 11.7889902,12.159374 l 11.795364,12.142479 -0.334689,0.337659 c -0.184078,0.185712 -0.340819,0.337195 -0.348312,0.336631 -0.0075,-5.64e-4 -5.468801,-5.614295 -12.13624,-12.474957 z"
     id="path5243"
     inkscape:connector-curvature="0" /><path
     style="opacity:0;fill:#808080;fill-opacity:1;stroke-width:0.02648305"
     d="M 12.16177,37.494454 C 5.4943307,30.633792 0.03915322,25.011341 0.03915322,25.000118 c 0,-0.01122 2.79078448,-2.8916 6.20174338,-6.400837 l 6.2017434,-6.380431 0.673541,-0.0071 0.67354,-0.0071 -0.07576,0.09061 c -0.04167,0.04984 -2.828673,2.923463 -6.1933449,6.385835 -3.3646716,3.462372 -6.1204528,6.302825 -6.1239583,6.312117 -0.00351,0.0093 5.3015401,5.481011 11.7889902,12.159374 l 11.795364,12.142479 -0.334689,0.337659 c -0.184078,0.185712 -0.340819,0.337195 -0.348312,0.336631 -0.0075,-5.64e-4 -5.468801,-5.614295 -12.13624,-12.474957 z"
     id="path5245"
     inkscape:connector-curvature="0" /><path
     style="opacity:0;fill:#808080;fill-opacity:1;stroke-width:0.02648305"
     d="M 12.16177,37.494454 C 5.4943307,30.633792 0.03915322,25.011341 0.03915322,25.000118 c 0,-0.01122 2.79078448,-2.8916 6.20174338,-6.400837 l 6.2017434,-6.380431 0.673541,-0.0071 0.67354,-0.0071 -0.07576,0.09061 c -0.04167,0.04984 -2.828673,2.923463 -6.1933449,6.385835 -3.3646716,3.462372 -6.1204528,6.302825 -6.1239583,6.312117 -0.00351,0.0093 5.3015401,5.481011 11.7889902,12.159374 l 11.795364,12.142479 -0.334689,0.337659 c -0.184078,0.185712 -0.340819,0.337195 -0.348312,0.336631 -0.0075,-5.64e-4 -5.468801,-5.614295 -12.13624,-12.474957 z"
     id="path5247"
     inkscape:connector-curvature="0" /><path
     style="opacity:0;fill:#808080;fill-opacity:1;stroke-width:0.02648305"
     d="M 12.16177,37.494454 C 5.4943307,30.633792 0.03915322,25.011341 0.03915322,25.000118 c 0,-0.01122 2.79078448,-2.8916 6.20174338,-6.400837 l 6.2017434,-6.380431 0.673541,-0.0071 0.67354,-0.0071 -0.07576,0.09061 c -0.04167,0.04984 -2.828673,2.923463 -6.1933449,6.385835 -3.3646716,3.462372 -6.1204528,6.302825 -6.1239583,6.312117 -0.00351,0.0093 5.3015401,5.481011 11.7889902,12.159374 l 11.795364,12.142479 -0.334689,0.337659 c -0.184078,0.185712 -0.340819,0.337195 -0.348312,0.336631 -0.0075,-5.64e-4 -5.468801,-5.614295 -12.13624,-12.474957 z"
     id="path5249"
     inkscape:connector-curvature="0" /><path
     style="opacity:0;fill:#808080;fill-opacity:1;stroke-width:0.02648305"
     d="M 12.16177,37.494454 C 5.4943307,30.633792 0.03915322,25.011341 0.03915322,25.000118 c 0,-0.01122 2.79078448,-2.8916 6.20174338,-6.400837 l 6.2017434,-6.380431 0.673541,-0.0071 0.67354,-0.0071 -0.07576,0.09061 c -0.04167,0.04984 -2.828673,2.923463 -6.1933449,6.385835 -3.3646716,3.462372 -6.1204528,6.302825 -6.1239583,6.312117 -0.00351,0.0093 5.3015401,5.481011 11.7889902,12.159374 l 11.795364,12.142479 -0.334689,0.337659 c -0.184078,0.185712 -0.340819,0.337195 -0.348312,0.336631 -0.0075,-5.64e-4 -5.468801,-5.614295 -12.13624,-12.474957 z"
     id="path5251"
     inkscape:connector-curvature="0" /><path
     style="opacity:0;fill:#808080;fill-opacity:1;stroke-width:0.02648305"
     d="M 12.16177,37.494454 C 5.4943307,30.633792 0.03915322,25.011341 0.03915322,25.000118 c 0,-0.01122 2.79078448,-2.8916 6.20174338,-6.400837 l 6.2017434,-6.380431 0.673541,-0.0071 0.67354,-0.0071 -0.07576,0.09061 c -0.04167,0.04984 -2.828673,2.923463 -6.1933449,6.385835 -3.3646716,3.462372 -6.1204528,6.302825 -6.1239583,6.312117 -0.00351,0.0093 5.3015401,5.481011 11.7889902,12.159374 l 11.795364,12.142479 -0.334689,0.337659 c -0.184078,0.185712 -0.340819,0.337195 -0.348312,0.336631 -0.0075,-5.64e-4 -5.468801,-5.614295 -12.13624,-12.474957 z"
     id="path5253"
     inkscape:connector-curvature="0" /><path
     style="opacity:0;fill:#585858;fill-opacity:1;stroke-width:0.03745269"
     d="M 12.181347,37.509063 C 5.5175769,30.651086 0.06075722,25.027038 0.05508077,25.011179 0.04940434,24.99532 4.9250824,19.961232 10.889921,13.824316 L 21.735083,2.6662873 22.412661,2.6560596 23.090239,2.6458319 21.92991,3.8358194 C 16.469242,9.4360629 1.3946341,24.98681 1.4030427,25.011037 c 0.00586,0.01689 5.2605865,5.433893 11.6771683,12.037794 6.416582,6.603901 11.716324,12.065709 11.777203,12.137352 l 0.11069,0.130261 -0.335406,0.330834 -0.335406,0.330835 z"
     id="path5261"
     inkscape:connector-curvature="0" /><path
     style="opacity:0;fill:#585858;fill-opacity:1;stroke-width:0.03745269"
     d="M 12.181347,37.509063 C 5.5175769,30.651086 0.06075722,25.027038 0.05508077,25.011179 0.04940434,24.99532 4.9250824,19.961232 10.889921,13.824316 L 21.735083,2.6662873 22.412661,2.6560596 23.090239,2.6458319 21.92991,3.8358194 C 16.469242,9.4360629 1.3946341,24.98681 1.4030427,25.011037 c 0.00586,0.01689 5.2605865,5.433893 11.6771683,12.037794 6.416582,6.603901 11.716324,12.065709 11.777203,12.137352 l 0.11069,0.130261 -0.335406,0.330834 -0.335406,0.330835 z"
     id="path5263"
     inkscape:connector-curvature="0" /><path
     style="opacity:0;fill:#585858;fill-opacity:1;stroke-width:0.03745269"
     d="M 12.181347,37.509063 C 5.5175769,30.651086 0.06075722,25.027038 0.05508077,25.011179 0.04940434,24.99532 4.9250824,19.961232 10.889921,13.824316 L 21.735083,2.6662873 22.412661,2.6560596 23.090239,2.6458319 21.92991,3.8358194 C 16.469242,9.4360629 1.3946341,24.98681 1.4030427,25.011037 c 0.00586,0.01689 5.2605865,5.433893 11.6771683,12.037794 6.416582,6.603901 11.716324,12.065709 11.777203,12.137352 l 0.11069,0.130261 -0.335406,0.330834 -0.335406,0.330835 z"
     id="path5265"
     inkscape:connector-curvature="0" /></svg>