<?xml version="1.0" encoding="UTF-8" standalone="no"?>
<!-- Created with Inkscape (http://www.inkscape.org/) -->

<svg
   xmlns:dc="http://purl.org/dc/elements/1.1/"
   xmlns:cc="http://creativecommons.org/ns#"
   xmlns:rdf="http://www.w3.org/1999/02/22-rdf-syntax-ns#"
   xmlns:svg="http://www.w3.org/2000/svg"
   xmlns="http://www.w3.org/2000/svg"
   xmlns:sodipodi="http://sodipodi.sourceforge.net/DTD/sodipodi-0.dtd"
   xmlns:inkscape="http://www.inkscape.org/namespaces/inkscape"
   width="7.9377646mm"
   height="7.9375mm"
   viewBox="0 0 7.9377646 7.9375"
   version="1.1"
   id="svg6411"
   inkscape:version="0.92.1 unknown"
   sodipodi:docname="drawing-1f.svg">
  <defs
     id="defs6405" />
  <sodipodi:namedview
     id="base"
     pagecolor="#ffffff"
     bordercolor="#666666"
     borderopacity="1.0"
     inkscape:pageopacity="0.0"
     inkscape:pageshadow="2"
     inkscape:zoom="0.35"
     inkscape:cx="220.71479"
     inkscape:cy="-84.999991"
     inkscape:document-units="mm"
     inkscape:current-layer="layer1"
     showgrid="false"
     fit-margin-top="0"
     fit-margin-left="0"
     fit-margin-right="0"
     fit-margin-bottom="0"
     inkscape:window-width="1855"
     inkscape:window-height="1056"
     inkscape:window-x="65"
     inkscape:window-y="24"
     inkscape:window-maximized="1" />
  <metadata
     id="metadata6408">
    <rdf:RDF>
      <cc:Work
         rdf:about="">
        <dc:format>image/svg+xml</dc:format>
        <dc:type
           rdf:resource="http://purl.org/dc/dcmitype/StillImage" />
        <dc:title></dc:title>
      </cc:Work>
    </rdf:RDF>
  </metadata>
  <g
     inkscape:label="Layer 1"
     inkscape:groupmode="layer"
     id="layer1"
     transform="translate(-47.435879,-118.40625)">
    <g
       transform="matrix(0.26458333,0,0,-0.26458333,52.255,122.37659)"
       id="g4119">
      <path
         inkscape:connector-curvature="0"
         id="path4121"
         style="fill:#999999;fill-opacity:1;fill-rule:nonzero;stroke:none"
         d="M 0,0 H -2.102 V -7.495 H -5.217 V 0 h -1.481 v 2.648 h 1.481 v 1.714 c 0,1.226 0.582,3.144 3.143,3.144 l 2.307,-0.01 v -2.57 h -1.674 c -0.273,0 -0.661,-0.137 -0.661,-0.722 V 2.648 h 2.375 z m 7.099,15.006 h -20.625 c -2.589,0 -4.688,-2.1 -4.688,-4.688 v -20.625 c 0,-2.589 2.099,-4.687 4.688,-4.687 H 7.099 c 2.589,0 4.688,2.098 4.688,4.687 v 20.625 c 0,2.588 -2.099,4.688 -4.688,4.688" />
    </g>
  </g>
</svg>
