<?xml version="1.0" encoding="UTF-8" standalone="no"?>
<!-- Created with Inkscape (http://www.inkscape.org/) -->

<svg
   xmlns:dc="http://purl.org/dc/elements/1.1/"
   xmlns:cc="http://creativecommons.org/ns#"
   xmlns:rdf="http://www.w3.org/1999/02/22-rdf-syntax-ns#"
   xmlns:svg="http://www.w3.org/2000/svg"
   xmlns="http://www.w3.org/2000/svg"
   xmlns:sodipodi="http://sodipodi.sourceforge.net/DTD/sodipodi-0.dtd"
   xmlns:inkscape="http://www.inkscape.org/namespaces/inkscape"
   width="7.9377646mm"
   height="7.9375mm"
   viewBox="0 0 7.9377646 7.9375"
   version="1.1"
   id="svg6477"
   inkscape:version="0.92.1 unknown"
   sodipodi:docname="drawing-t.svg">
  <defs
     id="defs6471" />
  <sodipodi:namedview
     id="base"
     pagecolor="#ffffff"
     bordercolor="#666666"
     borderopacity="1.0"
     inkscape:pageopacity="0.0"
     inkscape:pageshadow="2"
     inkscape:zoom="0.35"
     inkscape:cx="-73.570912"
     inkscape:cy="-122.14287"
     inkscape:document-units="mm"
     inkscape:current-layer="layer1"
     showgrid="false"
     fit-margin-top="0"
     fit-margin-left="0"
     fit-margin-right="0"
     fit-margin-bottom="0"
     inkscape:window-width="1855"
     inkscape:window-height="1056"
     inkscape:window-x="65"
     inkscape:window-y="24"
     inkscape:window-maximized="1" />
  <metadata
     id="metadata6474">
    <rdf:RDF>
      <cc:Work
         rdf:about="">
        <dc:format>image/svg+xml</dc:format>
        <dc:type
           rdf:resource="http://purl.org/dc/dcmitype/StillImage" />
        <dc:title></dc:title>
      </cc:Work>
    </rdf:RDF>
  </metadata>
  <g
     inkscape:label="Layer 1"
     inkscape:groupmode="layer"
     id="layer1"
     transform="translate(-125.29897,-108.57887)">
    <g
       transform="matrix(0.26458333,0,0,-0.26458333,130.84596,111.73852)"
       id="g4123">
      <path
         inkscape:connector-curvature="0"
         id="path4125"
         style="fill:#999999;fill-opacity:1;fill-rule:nonzero;stroke:none"
         d="m 0,0 c 0.006,-0.132 0.009,-0.264 0.009,-0.397 0,-4.067 -3.095,-8.757 -8.756,-8.757 -1.739,0 -3.356,0.509 -4.718,1.383 0.242,-0.029 0.486,-0.042 0.734,-0.042 1.443,0 2.769,0.49 3.822,1.316 -1.346,0.025 -2.483,0.915 -2.874,2.137 0.188,-0.036 0.38,-0.055 0.579,-0.055 0.281,0 0.553,0.038 0.81,0.108 -1.406,0.283 -2.468,1.527 -2.468,3.018 v 0.038 c 0.415,-0.23 0.889,-0.369 1.394,-0.384 -0.826,0.551 -1.369,1.494 -1.369,2.562 0,0.563 0.152,1.092 0.417,1.547 1.517,-1.862 3.786,-3.087 6.343,-3.216 -0.053,0.226 -0.08,0.46 -0.08,0.702 0,1.699 1.378,3.076 3.078,3.076 0.885,0 1.685,-0.374 2.246,-0.971 0.7,0.138 1.359,0.394 1.955,0.747 C 0.891,2.093 0.404,1.49 -0.232,1.11 0.391,1.183 0.984,1.349 1.535,1.593 1.123,0.976 0.602,0.434 0,0 m 4.348,11.942 h -20.625 c -2.59,0 -4.688,-2.099 -4.688,-4.687 V -13.37 c 0,-2.589 2.098,-4.688 4.688,-4.688 H 4.348 c 2.589,0 4.688,2.099 4.688,4.688 V 7.255 c 0,2.588 -2.099,4.687 -4.688,4.687" />
    </g>
  </g>
</svg>
