<?xml version="1.0" encoding="utf-8"?>
<!-- Generator: Adobe Illustrator 18.0.0, SVG Export Plug-In . SVG Version: 6.00 Build 0)  -->
<!DOCTYPE svg PUBLIC "-//W3C//DTD SVG 1.1//EN" "http://www.w3.org/Graphics/SVG/1.1/DTD/svg11.dtd">
<svg version="1.1" id="Layer_1" xmlns="http://www.w3.org/2000/svg" xmlns:xlink="http://www.w3.org/1999/xlink" x="0px" y="0px"
	 viewBox="0 0 30 30" enable-background="new 0 0 30 30" xml:space="preserve">
<path fill="#46A9DF" d="M-4.7,0h-20.6C-27.9,0-30,2.1-30,4.7v20.6c0,2.6,2.1,4.7,4.7,4.7h20.6c2.6,0,4.7-2.1,4.7-4.7V4.7
	C0,2.1-2.1,0-4.7,0z M-9,11.9c0,0.1,0,0.3,0,0.4c0,4.1-3.1,8.8-8.8,8.8c-1.7,0-3.4-0.5-4.7-1.4c0.2,0,0.5,0,0.7,0
	c1.4,0,2.8-0.5,3.8-1.3c-1.3,0-2.5-0.9-2.9-2.1c0.2,0,0.4,0.1,0.6,0.1c0.3,0,0.6,0,0.8-0.1c-1.4-0.3-2.5-1.5-2.5-3c0,0,0,0,0,0
	c0.4,0.2,0.9,0.4,1.4,0.4c-0.8-0.6-1.4-1.5-1.4-2.6c0-0.6,0.2-1.1,0.4-1.5c1.5,1.9,3.8,3.1,6.3,3.2c-0.1-0.2-0.1-0.5-0.1-0.7
	c0-1.7,1.4-3.1,3.1-3.1c0.9,0,1.7,0.4,2.2,1c0.7-0.1,1.4-0.4,2-0.7c-0.2,0.7-0.7,1.3-1.4,1.7c0.6-0.1,1.2-0.2,1.8-0.5
	C-7.9,11-8.4,11.5-9,11.9z"/>
<g>
	<path fill="#1B6597" d="M25.3,0H4.7C2.1,0,0,2.1,0,4.7v20.6C0,27.9,2.1,30,4.7,30h20.6c2.6,0,4.7-2.1,4.7-4.7V4.7
		C30,2.1,27.9,0,25.3,0z M10.9,22.2H7.7v-9.7h3.2V22.2z M9.3,11.2L9.3,11.2c-1.1,0-1.8-0.7-1.8-1.7c0-0.9,0.7-1.7,1.8-1.7
		c1.1,0,1.8,0.7,1.8,1.7C11.1,10.4,10.4,11.2,9.3,11.2z M22.5,22.2h-3.2V17c0-1.3-0.5-2.2-1.6-2.2c-0.9,0-1.4,0.6-1.6,1.2
		c-0.1,0.2-0.1,0.5-0.1,0.8v5.4h-3.2c0,0,0-8.8,0-9.7h3.2v1.4c0.4-0.7,1.2-1.6,2.9-1.6c2.1,0,3.7,1.4,3.7,4.4V22.2z"/>
	<path fill="#1B6597" d="M15.9,13.9L15.9,13.9C15.9,13.9,15.9,13.9,15.9,13.9L15.9,13.9z"/>
</g>
</svg>
