<?xml version="1.0" encoding="utf-8"?>
<!-- Generator: Adobe Illustrator 18.0.0, SVG Export Plug-In . SVG Version: 6.00 Build 0)  -->
<!DOCTYPE svg PUBLIC "-//W3C//DTD SVG 1.1//EN" "http://www.w3.org/Graphics/SVG/1.1/DTD/svg11.dtd">
<svg version="1.1" id="Layer_1" xmlns="http://www.w3.org/2000/svg" xmlns:xlink="http://www.w3.org/1999/xlink" x="0px" y="0px"
	 viewBox="0 0 30 30" enable-background="new 0 0 30 30" xml:space="preserve">
<path fill="#415598" d="M25.3,0H4.7C2.1,0,0,2.1,0,4.7v20.6C0,27.9,2.1,30,4.7,30h20.6c2.6,0,4.7-2.1,4.7-4.7V4.7
	C30,2.1,27.9,0,25.3,0z M18.2,15h-2.1c0,3.4,0,7.5,0,7.5H13c0,0,0-4.1,0-7.5h-1.5v-2.6H13v-1.7c0-1.2,0.6-3.1,3.1-3.1l2.3,0v2.6
	c0,0-1.4,0-1.7,0c-0.3,0-0.7,0.1-0.7,0.7v1.6h2.4L18.2,15z"/>
<path fill="#46A9DF" d="M55.3,0H34.7C32.1,0,30,2.1,30,4.7v20.6c0,2.6,2.1,4.7,4.7,4.7h20.6c2.6,0,4.7-2.1,4.7-4.7V4.7
	C60,2.1,57.9,0,55.3,0z M51,11.9c0,0.1,0,0.3,0,0.4c0,4.1-3.1,8.8-8.8,8.8c-1.7,0-3.4-0.5-4.7-1.4c0.2,0,0.5,0,0.7,0
	c1.4,0,2.8-0.5,3.8-1.3c-1.3,0-2.5-0.9-2.9-2.1c0.2,0,0.4,0.1,0.6,0.1c0.3,0,0.6,0,0.8-0.1c-1.4-0.3-2.5-1.5-2.5-3c0,0,0,0,0,0
	c0.4,0.2,0.9,0.4,1.4,0.4c-0.8-0.6-1.4-1.5-1.4-2.6c0-0.6,0.2-1.1,0.4-1.5c1.5,1.9,3.8,3.1,6.3,3.2c-0.1-0.2-0.1-0.5-0.1-0.7
	c0-1.7,1.4-3.1,3.1-3.1c0.9,0,1.7,0.4,2.2,1c0.7-0.1,1.4-0.4,2-0.7c-0.2,0.7-0.7,1.3-1.4,1.7c0.6-0.1,1.2-0.2,1.8-0.5
	C52.1,11,51.6,11.5,51,11.9z"/>
</svg>
