<?xml version="1.0" encoding="utf-8"?>
<!-- Generator: Adobe Illustrator 18.0.0, SVG Export Plug-In . SVG Version: 6.00 Build 0)  -->
<!DOCTYPE svg PUBLIC "-//W3C//DTD SVG 1.1//EN" "http://www.w3.org/Graphics/SVG/1.1/DTD/svg11.dtd">
<svg version="1.1" id="Layer_1" xmlns="http://www.w3.org/2000/svg" xmlns:xlink="http://www.w3.org/1999/xlink" x="0px" y="0px"
	 viewBox="0 0 100 100" enable-background="new 0 0 100 100" xml:space="preserve">
<circle fill="#E9EBEE" cx="50" cy="50" r="50"/>
<circle fill="#E9EBEE" cx="150" cy="50" r="50"/>
<g>
	<circle fill="#E9EBEE" cx="-50" cy="50" r="50"/>
</g>
<g>
	<g transform="translate(-363.000000, -704.000000)">
		<g transform="translate(363.000000, 704.000000)">
			<path d="M27.4,73.3h45.9v-5H37.9C33.8,68.3,30,70.2,27.4,73.3 M74.2,75H25.8c-0.3,0-0.6-0.2-0.7-0.4c-0.1-0.3-0.1-0.6,0-0.8
				c2.8-4.4,7.5-7.1,12.7-7.1h36.3c0.5,0,0.8,0.4,0.8,0.8v6.7C75,74.6,74.6,75,74.2,75"/>
			<path d="M45.8,56.7h1.7v-5h-1.7V56.7z M48.3,58.3H45c-0.5,0-0.8-0.4-0.8-0.8v-6.7c0-0.5,0.4-0.8,0.8-0.8h3.3
				c0.5,0,0.8,0.4,0.8,0.8v6.7C49.2,58,48.8,58.3,48.3,58.3L48.3,58.3z"/>
			<path d="M52.5,55h1.7v-3.3h-1.7V55z M55,56.7h-3.3c-0.5,0-0.8-0.4-0.8-0.8v-5c0-0.5,0.4-0.8,0.8-0.8H55c0.5,0,0.8,0.4,0.8,0.8v5
				C55.8,56.3,55.5,56.7,55,56.7L55,56.7z"/>
			<path d="M46.7,30h6.7v-3.3h-6.7V30z M54.2,31.7h-8.3c-0.5,0-0.8-0.4-0.8-0.8v-5c0-0.5,0.4-0.8,0.8-0.8h8.3c0.5,0,0.8,0.4,0.8,0.8
				v5C55,31.3,54.6,31.7,54.2,31.7L54.2,31.7z"/>
			<path d="M56.7,36.7c-1.8,0-3.3,1.5-3.3,3.3s1.5,3.3,3.3,3.3c1.8,0,3.3-1.5,3.3-3.3S58.5,36.7,56.7,36.7 M56.7,45
				c-2.8,0-5-2.2-5-5s2.2-5,5-5c2.8,0,5,2.2,5,5S59.4,45,56.7,45"/>
			<path d="M55,51.7H45c-1.4,0-2.5-1.1-2.5-2.5V32.5c0-1.4,1.1-2.5,2.5-2.5h10c1.4,0,2.5,1.1,2.5,2.5v3.3c0,0.5-0.4,0.8-0.8,0.8
				s-0.8-0.4-0.8-0.8v-3.3c0-0.5-0.4-0.8-0.8-0.8H45c-0.5,0-0.8,0.4-0.8,0.8v16.7c0,0.5,0.4,0.8,0.8,0.8h10c0.5,0,0.8-0.4,0.8-0.8
				v-5c0-0.5,0.4-0.8,0.8-0.8s0.8,0.4,0.8,0.8v5C57.5,50.5,56.4,51.7,55,51.7"/>
			<path d="M71.7,59.2c-0.9,0-1.7,0.7-1.7,1.7s0.7,1.7,1.7,1.7s1.7-0.7,1.7-1.7S72.6,59.2,71.7,59.2 M71.7,64.2
				c-1.8,0-3.3-1.5-3.3-3.3c0-1.8,1.5-3.3,3.3-3.3S75,59,75,60.8C75,62.7,73.5,64.2,71.7,64.2"/>
			<path d="M70.8,59.3c-0.5,0-0.8-0.4-0.8-0.8V47.2c0-1.5-0.8-3-2.2-3.7l-7.5-4c-0.4-0.2-0.6-0.7-0.3-1.1c0.2-0.4,0.7-0.6,1.1-0.3
				l7.5,4c1.9,1,3.1,3,3.1,5.2v11.3C71.7,58.9,71.3,59.3,70.8,59.3"/>
			<path d="M70.8,68.3h-5c-0.5,0-0.8-0.4-0.8-0.8V50.7c0-1.6-1-3.1-2.4-3.8l-4.9-2.2c-0.4-0.2-0.6-0.7-0.4-1.1
				c0.2-0.4,0.7-0.6,1.1-0.4l4.9,2.2c2.1,0.9,3.4,3,3.4,5.3v15.9H70v-3.5c0-0.5,0.4-0.8,0.8-0.8c0.5,0,0.8,0.4,0.8,0.8v4.3
				C71.7,68,71.3,68.3,70.8,68.3"/>
			<path d="M42.5,66.7h15V65h-15V66.7z M58.3,68.3H41.7c-0.5,0-0.8-0.4-0.8-0.8v-3.3c0-0.5,0.4-0.8,0.8-0.8h16.7
				c0.5,0,0.8,0.4,0.8,0.8v3.3C59.2,68,58.8,68.3,58.3,68.3L58.3,68.3z"/>
			<path d="M45.8,36.7h-2.5c-0.5,0-0.8-0.4-0.8-0.8c0-0.5,0.4-0.8,0.8-0.8h2.5c0.5,0,0.8,0.4,0.8,0.8C46.7,36.3,46.3,36.7,45.8,36.7
				"/>
			<path d="M46.7,41.7h-3.3c-0.5,0-0.8-0.4-0.8-0.8s0.4-0.8,0.8-0.8h3.3c0.5,0,0.8,0.4,0.8,0.8S47.1,41.7,46.7,41.7"/>
			<path d="M45.8,46.7h-2.5c-0.5,0-0.8-0.4-0.8-0.8c0-0.5,0.4-0.8,0.8-0.8h2.5c0.5,0,0.8,0.4,0.8,0.8C46.7,46.3,46.3,46.7,45.8,46.7
				"/>
		</g>
	</g>
</g>
</svg>
