<?xml version="1.0" encoding="utf-8"?>
<!-- Generator: Adobe Illustrator 18.0.0, SVG Export Plug-In . SVG Version: 6.00 Build 0)  -->
<!DOCTYPE svg PUBLIC "-//W3C//DTD SVG 1.1//EN" "http://www.w3.org/Graphics/SVG/1.1/DTD/svg11.dtd">
<svg version="1.1" id="Layer_1" xmlns="http://www.w3.org/2000/svg" xmlns:xlink="http://www.w3.org/1999/xlink" x="0px" y="0px"
	 viewBox="0 0 100 100" enable-background="new 0 0 100 100" xml:space="preserve">
<circle fill="#E9EBEE" cx="150" cy="50" r="50"/>
<g>
	<circle fill="#E9EBEE" cx="50" cy="50" r="50"/>
	<g>
		<path d="M84,60.7v-6.5l-4.2-0.8c-0.4-1.7-1-3.2-1.9-4.7l2.5-3.5l-4.6-4.7l-3.5,2.4c-1.5-0.9-3-1.6-4.7-2l-0.7-4.2h-6.5l-0.8,4.2
			c-1.7,0.4-3.2,1-4.7,1.9l-3.5-2.5l-4.7,4.6l2.4,3.5c-0.8,1.4-1.6,3-2,4.7l-4.2,0.7v6.5l4.2,0.8c0.4,1.7,1,3.2,1.9,4.7l-2.6,3.7
			l4.7,4.7l3.5-2.4c1.5,0.9,3,1.6,4.7,2L60,78h6.5l0.8-4.2c1.7-0.4,3.2-1,4.7-1.9l3.5,2.5l4.7-4.7l-2.4-3.5c0.9-1.4,1.6-3,2-4.7
			L84,60.7z M78.4,60.6c-0.4,1.8-1.1,3.5-2.2,5.1l-0.3,0.4l2.3,3.3l-2.8,2.9L72.1,70l-0.4,0.3c-1.6,1-3.3,1.7-5.1,2.1h-0.5l-0.7,3.9
			h-3.9l-0.7-3.9l-0.5-0.1c-1.8-0.4-3.5-1.1-5.1-2.2l-0.4-0.3l-3.4,2.3l-2.8-2.8l2.3-3.3l-0.3-0.4c-1-1.6-1.8-3.3-2.1-5.1L48.2,60
			l-3.9-0.8v-3.9l3.9-0.7l0.1-0.5c0.4-1.9,1.1-3.5,2.2-5.1l0.3-0.4l-2.3-3.3l2.8-2.8l3.3,2.3l0.4-0.3c1.6-1,3.3-1.8,5.1-2.1l0.5-0.1
			l0.7-3.9h3.9l0.7,3.9l0.5,0.1c1.9,0.4,3.5,1.1,5.1,2.2l0.4,0.3l3.3-2.3l2.8,2.8l-2.3,3.3l0.3,0.4c1,1.6,1.7,3.2,2.1,5.1l0.1,0.5
			l3.9,0.7v3.9l-3.8,0.8L78.4,60.6z"/>
		<path d="M63.4,45.3c-6.6,0-12,5.4-12,12c0,3.2,1.2,6.2,3.5,8.5c2.3,2.3,5.3,3.5,8.5,3.5h0.1c6.6,0,12-5.4,12-12
			c0-3.2-1.2-6.2-3.5-8.5C69.7,46.5,66.7,45.3,63.4,45.3z M63.4,67.9v0.8V67.9c-2.9,0-5.5-1.1-7.5-3.1s-3-4.7-3-7.5
			c0-5.8,4.8-10.5,10.6-10.5c2.8,0,5.4,1.1,7.4,3.1s3,4.7,3,7.5C73.8,63.1,69.2,67.9,63.4,67.9z"/>
		<path d="M45.3,47.2l-2.5-1.9c0.2-1.1,0.3-2.3,0.2-3.3l2.7-1.6l-1.7-4.8L41,36.1c-0.6-0.9-1.3-1.8-2.2-2.5l0.8-3l-4.5-2.2l-1.9,2.5
			c-1.1-0.2-2.2-0.3-3.3-0.2L28.4,28l-4.8,1.6l0.4,3.1c-0.9,0.6-1.8,1.3-2.5,2.2l-3-0.8l-2.2,4.5l2.5,1.9c-0.2,1.1-0.3,2.2-0.2,3.3
			L16,45.2l1.7,4.8l3.1-0.4c0.6,0.9,1.3,1.8,2.2,2.5l-0.8,3l4.6,2.2l1.9-2.5c1.1,0.2,2.3,0.3,3.3,0.2l1.6,2.7l4.8-1.7l-0.4-3.1
			c0.9-0.6,1.8-1.3,2.5-2.2l3,0.8L45.3,47.2z M39.5,49l-0.3,0.4c-0.8,1-1.8,1.9-2.9,2.5l-0.4,0.3l0.4,2.8L34,55.8l-1.3-2.5l-0.5,0.1
			c-1.2,0.1-2.6,0.1-3.8-0.2l-0.5-0.1l-1.7,2.3l-2.2-1l0.6-2.9l-0.4-0.3c-1-0.8-1.9-1.8-2.5-2.9l-0.2-0.4l-2.9,0.4L17.8,46l2.5-1.3
			l-0.1-0.5c-0.1-1.3-0.1-2.6,0.2-3.8l0.1-0.5L18.4,38l1-2.2l2.7,0.7l0.4-0.4c0.8-1,1.8-1.9,2.9-2.5l0.4-0.3l-0.4-2.8l2.3-0.8
			l1.3,2.5l0.5-0.1c1.2-0.1,2.6-0.1,3.8,0.2l0.5,0.1l1.7-2.3l2.2,1L37,34.1l0.4,0.3c1,0.8,1.9,1.8,2.5,2.9l0.3,0.4l2.8-0.4l0.8,2.3
			L41.4,41l0.1,0.5c0.1,1.2,0.1,2.6-0.2,3.8l-0.1,0.5l2.3,1.7l-1,2.2L39.5,49z"/>
		<path d="M30.8,35.8c-0.7,0-1.6,0.1-2.3,0.4c-1.8,0.6-3.2,1.9-4,3.5s-0.9,3.6-0.3,5.4c0.9,2.9,3.6,4.8,6.7,4.8
			c0.7,0,1.6-0.1,2.3-0.4c1.8-0.6,3.2-1.9,4-3.5c0.8-1.7,0.9-3.6,0.3-5.4C36.5,37.7,33.9,35.8,30.8,35.8z M35.8,45.3
			c-0.6,1.3-1.8,2.3-3.2,2.8c-0.5,0.1-1.1,0.2-1.8,0.2c-2.4,0-4.5-1.4-5.2-3.7c-0.5-1.3-0.4-2.9,0.3-4.2c0.6-1.3,1.8-2.3,3.2-2.8
			c0.6-0.2,1.1-0.3,1.8-0.3c2.4,0,4.5,1.4,5.2,3.7C36.5,42.4,36.4,43.9,35.8,45.3z"/>
		<polygon points="66.6,55.4 69,57.3 66.6,59.3 67.6,60.4 71.4,57.3 67.6,54.2 		"/>
		<polygon points="59.1,54.2 55.4,57.3 59.1,60.4 60.2,59.3 57.9,57.3 60.2,55.4 		"/>
		<rect x="62.6" y="51.8" transform="matrix(0.8966 0.4428 -0.4428 0.8966 31.922 -22.1332)" width="1.6" height="11.1"/>
	</g>
</g>
</svg>
