<?xml version="1.0" encoding="utf-8"?>
<!-- Generator: Adobe Illustrator 18.0.0, SVG Export Plug-In . SVG Version: 6.00 Build 0)  -->
<!DOCTYPE svg PUBLIC "-//W3C//DTD SVG 1.1//EN" "http://www.w3.org/Graphics/SVG/1.1/DTD/svg11.dtd">
<svg version="1.1" id="Layer_1" xmlns="http://www.w3.org/2000/svg" xmlns:xlink="http://www.w3.org/1999/xlink" x="0px" y="0px"
	 viewBox="0 0 100 100" enable-background="new 0 0 100 100" xml:space="preserve">
<circle fill="#E9EBEE" cx="-50" cy="50" r="50"/>
<circle fill="#E9EBEE" cx="50" cy="50" r="50"/>
<g>
	<path d="M49.9,55.5c-4.3,0-7.8,3.6-7.8,7.8s3.6,7.8,7.8,7.8s7.8-3.6,7.8-7.8S54.2,55.5,49.9,55.5z M49.9,69.2
		c-3.2,0-5.8-2.6-5.8-5.8c0-3.2,2.6-5.8,5.8-5.8s5.8,2.6,5.8,5.8S53.1,69.2,49.9,69.2z"/>
	<path d="M72.1,35.3L66.2,25H33.7l-5.8,10.3l13.8,20.3c-1.9,2-3.2,4.8-3.2,7.9c0,6.3,5.2,11.5,11.5,11.5s11.5-5.2,11.5-11.5
		c0-3.1-1.2-5.8-3.2-7.9L72.1,35.3z M56.8,54.1c-1.5-1.1-3.5-1.9-5.5-2.1l14.4-23.9l4.1,7.1L56.8,54.1z M58.2,36.5H41.7L36,27h27.9
		L58.2,36.5z M57,38.5l-7,11.7l-7-11.7H57z M34.3,28.1L48.6,52c-2,0.2-3.9,1-5.5,2.1L30.2,35.2L34.3,28.1z M49.9,72.9
		c-5.2,0-9.5-4.3-9.5-9.5s4.3-9.5,9.5-9.5s9.5,4.3,9.5,9.5S55.1,72.9,49.9,72.9z"/>
</g>
</svg>
