<?xml version="1.0" encoding="utf-8"?>
<!-- Generator: Adobe Illustrator 18.0.0, SVG Export Plug-In . SVG Version: 6.00 Build 0)  -->
<!DOCTYPE svg PUBLIC "-//W3C//DTD SVG 1.1//EN" "http://www.w3.org/Graphics/SVG/1.1/DTD/svg11.dtd">
<svg version="1.1" id="Layer_1" xmlns="http://www.w3.org/2000/svg" xmlns:xlink="http://www.w3.org/1999/xlink" x="0px" y="0px"
	 viewBox="0 0 1280 400" enable-background="new 0 0 1280 400" xml:space="preserve">
<g>
	<g>
		<polygon fill="#FBD334" points="99.6,214.9 43.4,214.9 98.1,79.1 0,79.1 0,320.9 57.6,320.9 		"/>
		<polygon fill="#FBD334" points="189.2,79.1 130.8,165.2 198.4,165.2 59,320.9 241.8,320.9 241.8,79.1 		"/>
	</g>
	<g>
		<g>
			<path fill="#FFFFFF" d="M348.4,152.7h24.2v97.4h-24.2V152.7z"/>
			<path fill="#FFFFFF" d="M394,152.7h24.2v39.1h37v-39.1h24.2v97.4h-24.2v-38.4h-36.3v38.4h-24.2v-97.4H394z"/>
			<path fill="#FFFFFF" d="M538.3,157.7v-10h24.2v10c27,0,44.8,17.8,44.8,40.5c0,23.5-17.8,41.2-44.8,41.2v12.1h-24.2v-12.1
				c-27,0-44.8-17.8-44.8-41.2C493.5,175.5,511.3,157.7,538.3,157.7z M538.3,219.6v-42c-11.4,0-19.9,9.2-19.9,20.6
				C518.4,209.6,526.9,219.6,538.3,219.6z M582.4,198.2c0-11.4-8.5-20.6-19.9-20.6v42C573.9,219.6,582.4,209.6,582.4,198.2z"/>
			<path fill="#FFFFFF" d="M668.4,150.6c30.6,0,52.6,22,52.6,49.8c0,28.4-22,51.2-52.6,51.2s-52.6-22.8-52.6-51.2
				C615.8,172.6,637.9,150.6,668.4,150.6z M668.4,230.2c14.9,0,27-12.8,27-29.2c0-15.6-12.1-27.7-27-27.7s-27,12.1-27,27.7
				C641.4,217.4,653.5,230.2,668.4,230.2z"/>
			<path fill="#FFFFFF" d="M738.1,221c5,5,12.8,10,21.3,10c8.5,0,13.5-3.6,13.5-10.7c0-5.7-3.6-9.2-12.1-9.2h-12.1v-19.2h10
				c7.1,0,11.4-5,11.4-10c0-5.7-4.3-10-12.1-10c-6.4,0-13.5,2.8-20.6,7.8l-9.2-17.1c11.4-9.2,23.5-11.4,34.8-11.4
				c14.9,0,32,8.5,32,27.7c0,11.4-6.4,17.8-12.8,21.3l0,0c10,3.6,15.6,11.4,15.6,22c0,19.2-16.4,29.9-35.6,29.9
				c-13.5,0-27-5-37-14.9L738.1,221z"/>
			<path fill="#FFFFFF" d="M835.6,152.7h25.6l34.1,97.4h-24.9l-6.4-20.6h-31.3l-5.7,20.6h-24.9L835.6,152.7z M858.3,210.3l-5.7-19.2
				c-2.1-6.4-4.3-17.1-4.3-17.1l0,0c0,0-2.1,10.7-4.3,17.1l-5.7,19.2H858.3z"/>
			<path fill="#FFFFFF" d="M926.6,201.8L896,152.7h27.7l10.7,19.9c3.6,6.4,6.4,12.8,6.4,12.8l0,0c0,0,2.8-6.4,6.4-12.8l11.4-19.9
				h27.7l-30.6,49.1l30.6,48.4h-27l-11.4-20.6c-3.6-6.4-6.4-12.1-6.4-12.1l0,0c0,0-2.8,5.7-6.4,12.1l-11.4,20.6H896L926.6,201.8z"/>
			<path fill="#FFFFFF" d="M997.7,152.7h24.2v45.5c0,6.4-1.4,16.4-1.4,16.4l0,0c0,0,4.3-10,8.5-16.4l27.7-45.5h24.9v97.4h-24.2
				v-45.5c0-6.4,1.4-16.4,1.4-16.4l0,0c0,0-4.3,10-8.5,16.4l-27.7,45.5h-24.9V152.7z"/>
			<path fill="#FFFFFF" d="M1150.6,150.6c13.5,0,27.7,4.3,37.7,13.5l-11.4,17.8c-6.4-5.7-16.4-10-24.9-10
				c-19.9,0-28.4,13.5-28.4,27.7c0,14.2,9.2,29.2,28.4,29.2c10,0,19.9-5,26.3-12.1l12.8,17.8c-8.5,9.2-22,16.4-40.5,16.4
				c-32,0-52.6-22-52.6-50.5C1098,172.6,1120,150.6,1150.6,150.6z"/>
			<path fill="#FFFFFF" d="M1225.2,173.3h-30.6v-20.6h85.3v20.6h-30.6v77.5h-24.2V173.3z"/>
		</g>
	</g>
</g>
</svg>
