<?xml version="1.0" encoding="UTF-8" standalone="no"?>
<svg xmlns:rdf="http://www.w3.org/1999/02/22-rdf-syntax-ns#" xmlns="http://www.w3.org/2000/svg" enable-background="new 0 0 566.9 283.5" xml:space="preserve" viewBox="0 0 566.9 107.7" height="107.7" width="566.9" version="1.1" y="0px" x="0px" xmlns:cc="http://creativecommons.org/ns#" xmlns:dc="http://purl.org/dc/elements/1.1/"><g transform="translate(0,-87.9)"><g fill="#fff"><path d="m163.1 118.5h11.4v46.5h-11.4v-46.5z"/><path d="m184.2 118.5h11.5l12.9 21.7c1.8 3.1 3.9 7.9 3.9 7.9h0.1s-0.5-5-0.5-7.9v-21.7h11.4v46.5h-11.4l-12.9-21.7c-1.8-3.1-3.9-7.9-3.9-7.9h-0.1s0.5 5 0.5 7.9v21.7h-11.4v-46.5z"/><path d="m233.3 118.5h28.5v9.8h-17.1v9.8h14.2v9.8h-14.2v17.1h-11.4v-46.5z"/><path d="m289.7 117.7c14.4 0 24.3 10.4 24.3 23.7 0 13.7-9.9 24.3-24.3 24.3s-24.3-10.7-24.3-24.3c0-13.3 9.9-23.7 24.3-23.7zm0 37.7c7.3 0 12.6-6 12.6-13.9 0-7.6-5.2-13.3-12.6-13.3s-12.6 5.7-12.6 13.3c0.1 7.9 5.3 13.9 12.6 13.9z"/><path d="m318 157.8 18-25.4c2-2.9 3.6-4.2 3.6-4.2v-0.2s-1.5 0.2-3.6 0.2h-17.1v-9.8h35.1v7l-18 25.6c-2 2.9-3.6 4.2-3.6 4.2v0.1s1.5-0.2 3.6-0.2h18.3v9.8h-36.3v-7.1z"/><path d="m372.5 118.5h12l15.8 46.5h-11.7l-2.9-9.8h-14.5l-2.8 9.8h-11.7l15.8-46.5zm10.6 27.6-2.6-9c-0.8-2.9-1.9-8-1.9-8h-0.1s-1 5.1-1.9 8l-2.7 9h9.2z"/><path d="m405 118.5h11.4v18.6h16.9v-18.6h11.4v46.5h-11.4v-18.2h-16.9v18.2h-11.4v-46.5z"/><path d="m464.3 145.9-15.4-27.5h12.9l5.3 11.2c1.5 3.2 2.8 6.7 2.8 6.7h0.1s1.3-3.5 2.8-6.7l5.2-11.2h13l-15.4 27.5v19.1h-11.4v-19.1z"/><path d="m496.8 150.5c2.6 2.3 7 4.8 11.2 4.8 3.2 0 4.8-1.4 4.8-3.3 0-6.6-20.6-5.5-20.6-20.1 0-8.6 7.1-14.2 16.8-14.2 5.2 0 10.5 1.7 14.6 5.3l-4.8 9.3c-2.6-2.3-6.6-4.1-10.3-4.1-3.4 0-4.9 1.4-4.9 3.3 0 6.6 20.6 5.1 20.6 19.8 0 7.8-5.8 14.5-16.5 14.5-6 0-12.4-2.2-16.8-6.6l5.9-8.7z"/><path d="m541.4 128.2h-14.1v-9.8h39.6v9.8h-14.1v36.8h-11.4v-36.8z"/></g><g fill="#fbd334"><polygon points="0 87.9 0 195.6 25.6 195.6 44.3 148.4 19.2 148.4 43.7 87.9"/><polygon points="26.3 195.6 107.7 195.6 107.7 87.9 84.2 87.9 58.3 126.2 88.5 126.2"/></g></g></svg>
